 <svg width="1256" height="700" viewBox="0 0 1156 850" fill="none" xmlns="http://www.w3.org/2000/svg" className='w-full h-100'>
<path opacity="0.5" d="M808.114 423.165C1209.56 545.291 533.29 977.902 490.372 686.186C468.881 540.122 238.14 714 201.696 516.948C175.964 377.786 353.721 397.759 483.575 309.263C698.877 162.524 693.375 388.243 808.114 423.165Z" fill="url(#paint0_radial_450_18)" stroke="white" stroke-width="0.7467" stroke-miterlimit="10" stroke-linecap="round" stroke-linejoin="round" stroke-dasharray="0.13 0.13"/>
<path opacity="0.5429" d="M815.56 406.835C1164.86 544.762 586.89 961.806 496.879 701.459C452.667 573.576 218.883 671.265 212.054 492.041C207.134 362.748 374.275 361.368 497.559 298.19C699.849 194.538 709.818 365.069 815.56 406.835Z" fill="url(#paint1_radial_450_18)" stroke="white" stroke-width="0.6933" stroke-miterlimit="10" stroke-linecap="round" stroke-linejoin="round" stroke-dasharray="0.13 0.13"/>
<path opacity="0.5857" d="M822.975 390.504C1119.81 541.003 642.402 947.15 503.356 716.761C437.49 607.617 200.535 627.59 222.35 467.164C238.695 346.917 392.986 325.476 511.512 287.147C698.332 226.7 725.778 341.219 822.975 390.504Z" fill="url(#paint2_radial_450_18)" stroke="white" stroke-width="0.64" stroke-miterlimit="10" stroke-linecap="round" stroke-linejoin="round" stroke-dasharray="0.13 0.13"/>
<path opacity="0.6286" d="M830.376 374.174C1075.33 533.396 700.78 932.67 509.818 732.034C423.756 641.629 183.888 583.122 232.664 442.257C271.374 330.41 409.256 289.144 525.451 276.074C693.239 257.188 741.562 316.43 830.376 374.174Z" fill="url(#paint3_radial_450_18)" stroke="white" stroke-width="0.5867" stroke-miterlimit="10" stroke-linecap="round" stroke-linejoin="round" stroke-dasharray="0.13 0.13"/>
<path opacity="0.6714" d="M837.791 357.843C1032.64 521.764 761.794 916.603 516.294 747.307C411.265 674.877 169.39 538.77 242.959 417.349C305.621 313.933 423.5 250.461 539.404 265C685.409 283.298 757.716 290.465 837.791 357.843Z" fill="url(#paint4_radial_450_18)" stroke="white" stroke-width="0.5333" stroke-miterlimit="10" stroke-linecap="round" stroke-linejoin="round" stroke-dasharray="0.13 0.13"/>
<path opacity="0.7143" d="M845.237 341.513C993.151 506.815 824.004 897.865 522.802 762.581C399.226 707.069 156.704 495.507 253.318 392.443C341.452 298.396 438.584 207.668 553.388 253.928C678.452 304.3 775.163 263.209 845.237 341.513Z" fill="url(#paint5_radial_450_18)" stroke="white" stroke-width="0.48" stroke-miterlimit="10" stroke-linecap="round" stroke-linejoin="round" stroke-dasharray="0.13 0.13"/>
<path opacity="0.7571" d="M852.655 325.182C957.911 490.279 885.798 876.747 529.281 777.854C386.901 738.349 144.541 453.946 263.617 367.536C378.033 284.533 457.816 161.848 567.344 242.855C675.901 323.156 795.042 234.807 852.655 325.182Z" fill="url(#paint6_radial_450_18)" stroke="white" stroke-width="0.4267" stroke-miterlimit="10" stroke-linecap="round" stroke-linejoin="round" stroke-dasharray="0.13 0.13"/>
<path opacity="0.8" d="M860.061 308.852C927.319 474.742 946.415 854.132 535.716 793.127C373.981 769.101 131.88 413.855 273.904 342.629C414.439 272.168 481.211 116.118 581.288 231.782C677.708 343.276 818.405 206.082 860.061 308.852Z" stroke="white" stroke-width="0.3733" stroke-miterlimit="10" stroke-linecap="round" stroke-linejoin="round" stroke-dasharray="0.13 0.13"/>
<path opacity="0.6857" d="M838.114 327.532C899.611 479.177 917.056 826.023 541.637 770.247C393.787 748.277 172.465 423.518 302.287 358.431C430.75 294.02 492.181 151.099 583.261 257.1C672.171 360.663 800.019 233.573 838.114 327.532Z" stroke="white" stroke-width="0.336" stroke-miterlimit="10" stroke-linecap="round" stroke-linejoin="round" stroke-dasharray="0.12 0.12"/>
<path opacity="0.5714" d="M816.175 346.183C871.878 483.612 887.705 797.856 547.534 747.308C413.569 727.394 213.026 433.152 330.678 374.174C447.068 315.813 503.159 186.021 585.273 282.359C666.642 378.051 781.64 261.036 816.175 346.183Z" stroke="white" stroke-width="0.2986" stroke-miterlimit="10" stroke-linecap="round" stroke-linejoin="round" stroke-dasharray="0.11 0.11"/>
<path opacity="0.4571" d="M794.23 364.833C844.171 488.017 858.348 769.688 553.423 724.397C433.344 706.569 253.58 442.785 359.03 389.916C463.38 337.606 514.098 220.972 587.246 307.618C661.074 395.438 763.288 288.527 794.23 364.833Z" stroke="white" stroke-width="0.2612" stroke-miterlimit="10" stroke-linecap="round" stroke-linejoin="round" stroke-dasharray="0.1 0.1"/>
<path opacity="0.3429" d="M772.287 383.514C816.467 492.453 828.993 741.551 559.315 701.489C453.121 685.716 294.137 452.449 387.417 405.69C479.694 359.43 525.071 255.925 589.254 332.908C655.541 412.827 744.905 316.019 772.287 383.514Z" stroke="white" stroke-width="0.2239" stroke-miterlimit="10" stroke-linecap="round" stroke-linejoin="round" stroke-dasharray="0.08 0.08"/>
<path opacity="0.2286" d="M750.313 402.164C788.7 496.858 799.607 713.413 565.209 678.578C472.9 664.862 334.695 462.111 415.773 421.461C495.977 381.252 536.015 290.876 591.2 358.195C650.01 430.243 726.556 343.51 750.313 402.164Z" stroke="white" stroke-width="0.1865" stroke-miterlimit="10" stroke-linecap="round" stroke-linejoin="round" stroke-dasharray="0.07 0.07"/>
<path opacity="0.1143" d="M728.359 420.845C760.984 501.293 770.241 685.275 571.09 655.669C492.666 644.009 375.241 471.746 444.116 437.235C512.248 403.076 546.912 325.858 593.164 383.485C644.465 447.632 708.162 371.002 728.359 420.845Z" stroke="white" stroke-width="0.1491" stroke-miterlimit="10" stroke-linecap="round" stroke-linejoin="round" stroke-dasharray="0.06 0.06"/>
<path opacity="0.5" d="M640.351 807.02C340.443 1360.38 -36.2058 372.412 360.607 383.838C559.305 389.565 491.659 -31.2381 686.052 2.9795C880.445 37.1971 810.599 211.575 881.675 407.394C970.489 651.91 717.869 664.011 640.351 807.02Z" stroke="white" stroke-width="0.8867" stroke-miterlimit="10" stroke-linecap="round" stroke-linejoin="round" stroke-dasharray="0.17 0.17"/>
<path opacity="0.5" d="M657.988 815.655C355.718 1289.41 -20.9959 434.532 346.137 382.105C526.063 356.434 539.203 -31.8257 712.914 24.1854C886.561 79.9322 851.054 247.143 888.503 427.278C935.11 651.704 740.07 687.008 657.988 815.655Z" fill="url(#paint7_radial_450_18)" stroke="white" stroke-width="0.7933" stroke-miterlimit="10" stroke-linecap="round" stroke-linejoin="round" stroke-dasharray="0.17 0.17"/>
<path opacity="0.5" d="M675.634 824.319C375.046 1218.57 -8.36727 498.973 331.675 380.43C491.695 324.654 586.723 -32.3841 739.816 45.4793C892.748 122.755 891.68 282.535 895.337 447.279C899.869 651.205 763.056 709.624 675.634 824.319Z" fill="url(#paint8_radial_450_18)" stroke="white" stroke-width="0.7" stroke-miterlimit="10" stroke-linecap="round" stroke-linejoin="round" stroke-dasharray="0.17 0.17"/>
<path opacity="0.5" d="M693.267 832.984C399.606 1148.73 3.69932 566.967 317.201 378.726C457.186 294.666 634.263 -32.9717 766.675 66.7147C898.859 165.549 932.488 317.634 902.128 467.222C864.972 650.441 787.162 732.034 693.267 832.984Z" fill="url(#paint9_radial_450_18)" stroke="white" stroke-width="0.6067" stroke-miterlimit="10" stroke-linecap="round" stroke-linejoin="round" stroke-dasharray="0.17 0.17"/>
<path opacity="0.5" d="M710.876 841.62C430.161 1081.26 17.877 638.223 302.734 377.024C423.656 266.176 681.811 -33.5288 793.572 87.9511C905.042 208.315 973.821 352.646 908.991 487.166C830.664 649.561 812.733 754.681 710.876 841.62Z" fill="url(#paint10_radial_450_18)" stroke="white" stroke-width="0.5133" stroke-miterlimit="10" stroke-linecap="round" stroke-linejoin="round" stroke-dasharray="0.16 0.16"/>
<path opacity="0.5" d="M728.512 850.284C466.668 1018.23 35.5136 711.034 288.264 375.32C391.48 238.214 729.322 -34.1169 820.433 109.186C911.157 251.079 1015.64 387.92 915.785 507.109C796.935 649.002 840.209 778.647 728.512 850.284Z" fill="url(#paint11_radial_450_18)" stroke="white" stroke-width="0.42" stroke-miterlimit="10" stroke-linecap="round" stroke-linejoin="round" stroke-dasharray="0.16 0.16"/>
<path opacity="0.5" d="M746.154 858.948C506.836 961.807 56.2947 783.699 273.797 373.646C360.54 210.135 776.87 -34.6749 847.332 130.48C917.34 293.902 1057.65 423.694 922.616 527.111C763.438 648.943 869.567 805.904 746.154 858.948Z" fill="url(#paint12_radial_450_18)" stroke="white" stroke-width="0.3267" stroke-miterlimit="10" stroke-linecap="round" stroke-linejoin="round" stroke-dasharray="0.16 0.16"/>
<path opacity="0.5" d="M763.795 867.583C544.901 913.432 79.1145 855.394 259.331 371.913C330.311 181.498 824.418 -35.2624 874.197 151.686C923.459 336.667 1099.53 459.792 929.447 547.025C729.81 649.384 899.411 839.181 763.795 867.583Z" fill="url(#paint13_radial_450_18)" stroke="white" stroke-width="0.2333" stroke-miterlimit="10" stroke-linecap="round" stroke-linejoin="round" stroke-dasharray="0.16 0.16"/>
<path opacity="0.3" d="M306.814 661.427C-445.706 577.953 400.418 -161.999 617.436 207.404C725.637 391.563 1098.14 156.034 1147.6 359.636C1197.05 563.238 988.679 570.463 819.629 723.841C608.502 915.401 485.769 681.282 306.814 661.427Z" stroke="white" stroke-width="0.56" stroke-miterlimit="10" stroke-linecap="round" stroke-linejoin="round" stroke-dasharray="0.19 0.19"/>
<path opacity="0.37" d="M301.444 686.157C-373.3 558.862 354.881 -123.816 612.227 187.843C740.204 342.836 1124.72 202.235 1140.61 394.559C1155.76 587.381 976.091 630.91 802.93 743.226C588.729 882.152 469.846 717.908 301.444 686.157Z" fill="url(#paint14_radial_450_18)" stroke="white" stroke-width="0.58" stroke-miterlimit="10" stroke-linecap="round" stroke-linejoin="round" stroke-dasharray="0.19 0.19"/>
<path opacity="0.44" d="M296.068 710.887C-299.507 543.999 309.015 -85.6643 607.013 168.31C754.604 294.107 1151.97 248.494 1133.62 429.48C1115.17 611.612 964.954 691.09 786.226 762.58C570.73 848.785 454.535 755.296 296.068 710.887Z" fill="url(#paint15_radial_450_18)" stroke="white" stroke-width="0.6" stroke-miterlimit="10" stroke-linecap="round" stroke-linejoin="round" stroke-dasharray="0.19 0.19"/>
<path opacity="0.51" d="M290.696 735.618C-225.291 534.337 262.764 -47.4216 601.803 148.75C768.814 245.381 1178.67 294.843 1126.63 464.403C1074 635.903 955.601 752.008 769.558 781.966C554.839 816.507 439.582 793.686 290.696 735.618Z" fill="url(#paint16_radial_450_18)" stroke="white" stroke-width="0.62" stroke-miterlimit="10" stroke-linecap="round" stroke-linejoin="round" stroke-dasharray="0.19 0.19"/>
<path opacity="0.58" d="M285.321 760.349C-152.274 530.283 216.218 -8.91573 596.589 129.188C782.858 196.831 1205.18 341.161 1119.63 499.297C1032.63 660.193 947.151 814.804 752.854 801.322C539.98 786.548 424.432 833.454 285.321 760.349Z" fill="url(#paint17_radial_450_18)" stroke="white" stroke-width="0.64" stroke-miterlimit="10" stroke-linecap="round" stroke-linejoin="round" stroke-dasharray="0.19 0.19"/>
<path opacity="0.65" d="M279.949 785.08C-82.4584 531.429 169.644 30.0016 591.38 109.657C796.907 148.486 1231.52 387.392 1112.64 534.249C991.106 684.395 937.895 879.715 736.155 820.708C524.316 758.734 408.25 874.868 279.949 785.08Z" fill="url(#paint18_radial_450_18)" stroke="white" stroke-width="0.66" stroke-miterlimit="10" stroke-linecap="round" stroke-linejoin="round" stroke-dasharray="0.19 0.19"/>
<path opacity="0.72" d="M274.58 809.81C-17.8193 536.04 123.137 69.946 586.139 90.0948C810.957 100.61 1257.52 433.211 1105.62 569.141C949.194 708.127 926.926 945.653 719.424 840.063C506.809 731.859 389.998 917.838 274.58 809.81Z" fill="url(#paint19_radial_450_18)" stroke="white" stroke-width="0.68" stroke-miterlimit="10" stroke-linecap="round" stroke-linejoin="round" stroke-dasharray="0.19 0.19"/>
<path opacity="0.79" d="M269.202 834.541C40.242 541.15 76.9132 108.599 580.956 70.5333C825.194 52.0881 1284.09 479.412 1098.66 604.064C907.923 732.299 914.493 1011.65 702.784 859.448C487.676 704.837 368.6 961.866 269.202 834.541Z" fill="url(#paint20_radial_450_18)" stroke="white" stroke-width="0.7" stroke-miterlimit="10" stroke-linecap="round" stroke-linejoin="round" stroke-dasharray="0.19 0.19"/>
<defs>
<radialGradient id="paint0_radial_450_18" cx="0" cy="0" r="1" gradientUnits="userSpaceOnUse" gradientTransform="translate(567.07 522.777) scale(330.947 300.321)">
<stop offset="0.2939" stop-color="#005B97" stop-opacity="0"/>
<stop offset="0.4173" stop-color="#00609C" stop-opacity="0.01"/>
<stop offset="0.563" stop-color="#006DAA" stop-opacity="0.0114"/>
<stop offset="0.7201" stop-color="#0083C2" stop-opacity="0.0181"/>
<stop offset="0.8841" stop-color="#00A2E3" stop-opacity="0.0251"/>
<stop offset="1" stop-color="#00BCFF" stop-opacity="0.03"/>
</radialGradient>
<radialGradient id="paint1_radial_450_18" cx="0" cy="0" r="1" gradientUnits="userSpaceOnUse" gradientTransform="translate(569.284 525.253) scale(323.866 293.896)">
<stop offset="0.2939" stop-color="#005B97" stop-opacity="0"/>
<stop offset="0.4173" stop-color="#00609C" stop-opacity="0.01"/>
<stop offset="0.563" stop-color="#006DAA" stop-opacity="0.0114"/>
<stop offset="0.7201" stop-color="#0083C2" stop-opacity="0.0181"/>
<stop offset="0.8841" stop-color="#00A2E3" stop-opacity="0.0251"/>
<stop offset="1" stop-color="#00BCFF" stop-opacity="0.03"/>
</radialGradient>
<radialGradient id="paint2_radial_450_18" cx="0" cy="0" r="1" gradientUnits="userSpaceOnUse" gradientTransform="translate(569.7 527.947) scale(318.174 288.73)">
<stop offset="0.2939" stop-color="#005B97" stop-opacity="0"/>
<stop offset="0.4173" stop-color="#00609C" stop-opacity="0.01"/>
<stop offset="0.563" stop-color="#006DAA" stop-opacity="0.0114"/>
<stop offset="0.7201" stop-color="#0083C2" stop-opacity="0.0181"/>
<stop offset="0.8841" stop-color="#00A2E3" stop-opacity="0.0251"/>
<stop offset="1" stop-color="#00BCFF" stop-opacity="0.03"/>
</radialGradient>
<radialGradient id="paint3_radial_450_18" cx="0" cy="0" r="1" gradientUnits="userSpaceOnUse" gradientTransform="translate(568.523 529.836) scale(314.347 285.258)">
<stop offset="0.2939" stop-color="#005B97" stop-opacity="0"/>
<stop offset="0.4173" stop-color="#00609C" stop-opacity="0.01"/>
<stop offset="0.563" stop-color="#006DAA" stop-opacity="0.0114"/>
<stop offset="0.7201" stop-color="#0083C2" stop-opacity="0.0181"/>
<stop offset="0.8841" stop-color="#00A2E3" stop-opacity="0.0251"/>
<stop offset="1" stop-color="#00BCFF" stop-opacity="0.03"/>
</radialGradient>
<radialGradient id="paint4_radial_450_18" cx="0" cy="0" r="1" gradientUnits="userSpaceOnUse" gradientTransform="translate(566.848 525.78) scale(314.526 285.42)">
<stop offset="0.2939" stop-color="#005B97" stop-opacity="0"/>
<stop offset="0.4173" stop-color="#00609C" stop-opacity="0.01"/>
<stop offset="0.563" stop-color="#006DAA" stop-opacity="0.0114"/>
<stop offset="0.7201" stop-color="#0083C2" stop-opacity="0.0181"/>
<stop offset="0.8841" stop-color="#00A2E3" stop-opacity="0.0251"/>
<stop offset="1" stop-color="#00BCFF" stop-opacity="0.03"/>
</radialGradient>
<radialGradient id="paint5_radial_450_18" cx="0" cy="0" r="1" gradientUnits="userSpaceOnUse" gradientTransform="translate(565.344 516.003) scale(318.786 289.286)">
<stop offset="0.2939" stop-color="#005B97" stop-opacity="0"/>
<stop offset="0.4173" stop-color="#00609C" stop-opacity="0.01"/>
<stop offset="0.563" stop-color="#006DAA" stop-opacity="0.0114"/>
<stop offset="0.7201" stop-color="#0083C2" stop-opacity="0.0181"/>
<stop offset="0.8841" stop-color="#00A2E3" stop-opacity="0.0251"/>
<stop offset="1" stop-color="#00BCFF" stop-opacity="0.03"/>
</radialGradient>
<radialGradient id="paint6_radial_450_18" cx="0" cy="0" r="1" gradientUnits="userSpaceOnUse" gradientTransform="translate(564.363 505.075) scale(325.502 295.381)">
<stop offset="0.2939" stop-color="#005B97" stop-opacity="0"/>
<stop offset="0.4173" stop-color="#00609C" stop-opacity="0.01"/>
<stop offset="0.563" stop-color="#006DAA" stop-opacity="0.0114"/>
<stop offset="0.7201" stop-color="#0083C2" stop-opacity="0.0181"/>
<stop offset="0.8841" stop-color="#00A2E3" stop-opacity="0.0251"/>
<stop offset="1" stop-color="#00BCFF" stop-opacity="0.03"/>
</radialGradient>
<radialGradient id="paint7_radial_450_18" cx="0" cy="0" r="1" gradientUnits="userSpaceOnUse" gradientTransform="translate(545.009 488.431) scale(442.077 401.168)">
<stop offset="0.7084" stop-color="#93D8BB" stop-opacity="0"/>
<stop offset="0.9031" stop-color="#93DABA" stop-opacity="0.0334"/>
<stop offset="0.9731" stop-color="#92E1B5" stop-opacity="0.0454"/>
<stop offset="1" stop-color="#91E6B1" stop-opacity="0.05"/>
</radialGradient>
<radialGradient id="paint8_radial_450_18" cx="0" cy="0" r="1" gradientUnits="userSpaceOnUse" gradientTransform="translate(546.967 487.816) scale(430.741 390.881)">
<stop offset="0.7084" stop-color="#93D8BB" stop-opacity="0"/>
<stop offset="0.9031" stop-color="#93DABA" stop-opacity="0.0334"/>
<stop offset="0.9731" stop-color="#92E1B5" stop-opacity="0.0454"/>
<stop offset="1" stop-color="#91E6B1" stop-opacity="0.05"/>
</radialGradient>
<radialGradient id="paint9_radial_450_18" cx="0" cy="0" r="1" gradientUnits="userSpaceOnUse" gradientTransform="translate(557.398 486.579) scale(424.07 384.827)">
<stop offset="0.7084" stop-color="#93D8BB" stop-opacity="0"/>
<stop offset="0.9031" stop-color="#93DABA" stop-opacity="0.0334"/>
<stop offset="0.9731" stop-color="#92E1B5" stop-opacity="0.0454"/>
<stop offset="1" stop-color="#91E6B1" stop-opacity="0.05"/>
</radialGradient>
<radialGradient id="paint10_radial_450_18" cx="0" cy="0" r="1" gradientUnits="userSpaceOnUse" gradientTransform="translate(570.356 484.944) scale(419.591 380.763)">
<stop offset="0.7084" stop-color="#93D8BB" stop-opacity="0"/>
<stop offset="0.9031" stop-color="#93DABA" stop-opacity="0.0334"/>
<stop offset="0.9731" stop-color="#92E1B5" stop-opacity="0.0454"/>
<stop offset="1" stop-color="#91E6B1" stop-opacity="0.05"/>
</radialGradient>
<radialGradient id="paint11_radial_450_18" cx="0" cy="0" r="1" gradientUnits="userSpaceOnUse" gradientTransform="translate(584.015 483.163) scale(416.72 378.157)">
<stop offset="0.7084" stop-color="#93D8BB" stop-opacity="0"/>
<stop offset="0.9031" stop-color="#93DABA" stop-opacity="0.0334"/>
<stop offset="0.9731" stop-color="#92E1B5" stop-opacity="0.0454"/>
<stop offset="1" stop-color="#91E6B1" stop-opacity="0.05"/>
</radialGradient>
<radialGradient id="paint12_radial_450_18" cx="0" cy="0" r="1" gradientUnits="userSpaceOnUse" gradientTransform="translate(597.623 481.532) scale(415.743 377.271)">
<stop offset="0.7084" stop-color="#93D8BB" stop-opacity="0"/>
<stop offset="0.9031" stop-color="#93DABA" stop-opacity="0.0334"/>
<stop offset="0.9731" stop-color="#92E1B5" stop-opacity="0.0454"/>
<stop offset="1" stop-color="#91E6B1" stop-opacity="0.05"/>
</radialGradient>
<radialGradient id="paint13_radial_450_18" cx="0" cy="0" r="1" gradientUnits="userSpaceOnUse" gradientTransform="translate(610.345 480.246) scale(417.006 378.417)">
<stop offset="0.7084" stop-color="#93D8BB" stop-opacity="0"/>
<stop offset="0.9031" stop-color="#93DABA" stop-opacity="0.0334"/>
<stop offset="0.9731" stop-color="#92E1B5" stop-opacity="0.0454"/>
<stop offset="1" stop-color="#91E6B1" stop-opacity="0.05"/>
</radialGradient>
<radialGradient id="paint14_radial_450_18" cx="0" cy="0" r="1" gradientUnits="userSpaceOnUse" gradientTransform="translate(581.934 452.689) scale(478.596 434.308)">
<stop offset="0.8534" stop-color="#2AF1FF" stop-opacity="0"/>
<stop offset="0.8862" stop-color="#2DE8FF" stop-opacity="0.0112"/>
<stop offset="0.9406" stop-color="#34CEFF" stop-opacity="0.0297"/>
<stop offset="1" stop-color="#3FABFF" stop-opacity="0.05"/>
</radialGradient>
<radialGradient id="paint15_radial_450_18" cx="0" cy="0" r="1" gradientUnits="userSpaceOnUse" gradientTransform="translate(589.2 453.267) scale(469.697 426.232)">
<stop offset="0.8534" stop-color="#2AF1FF" stop-opacity="0"/>
<stop offset="0.8862" stop-color="#2DE8FF" stop-opacity="0.0112"/>
<stop offset="0.9406" stop-color="#34CEFF" stop-opacity="0.0297"/>
<stop offset="1" stop-color="#3FABFF" stop-opacity="0.05"/>
</radialGradient>
<radialGradient id="paint16_radial_450_18" cx="0" cy="0" r="1" gradientUnits="userSpaceOnUse" gradientTransform="translate(598.535 453.571) scale(462.568 419.762)">
<stop offset="0.8534" stop-color="#2AF1FF" stop-opacity="0"/>
<stop offset="0.8862" stop-color="#2DE8FF" stop-opacity="0.0112"/>
<stop offset="0.9406" stop-color="#34CEFF" stop-opacity="0.0297"/>
<stop offset="1" stop-color="#3FABFF" stop-opacity="0.05"/>
</radialGradient>
<radialGradient id="paint17_radial_450_18" cx="0" cy="0" r="1" gradientUnits="userSpaceOnUse" gradientTransform="translate(608.872 454.83) scale(458.01 415.627)">
<stop offset="0.8534" stop-color="#2AF1FF" stop-opacity="0"/>
<stop offset="0.8862" stop-color="#2DE8FF" stop-opacity="0.0112"/>
<stop offset="0.9406" stop-color="#34CEFF" stop-opacity="0.0297"/>
<stop offset="1" stop-color="#3FABFF" stop-opacity="0.05"/>
</radialGradient>
<radialGradient id="paint18_radial_450_18" cx="0" cy="0" r="1" gradientUnits="userSpaceOnUse" gradientTransform="translate(619.391 466.327) scale(461.301 418.613)">
<stop offset="0.8534" stop-color="#2AF1FF" stop-opacity="0"/>
<stop offset="0.8862" stop-color="#2DE8FF" stop-opacity="0.0112"/>
<stop offset="0.9406" stop-color="#34CEFF" stop-opacity="0.0297"/>
<stop offset="1" stop-color="#3FABFF" stop-opacity="0.05"/>
</radialGradient>
<radialGradient id="paint19_radial_450_18" cx="0" cy="0" r="1" gradientUnits="userSpaceOnUse" gradientTransform="translate(629.268 477.904) scale(469.315 425.885)">
<stop offset="0.8534" stop-color="#2AF1FF" stop-opacity="0"/>
<stop offset="0.8862" stop-color="#2DE8FF" stop-opacity="0.0112"/>
<stop offset="0.9406" stop-color="#34CEFF" stop-opacity="0.0297"/>
<stop offset="1" stop-color="#3FABFF" stop-opacity="0.05"/>
</radialGradient>
<radialGradient id="paint20_radial_450_18" cx="0" cy="0" r="1" gradientUnits="userSpaceOnUse" gradientTransform="translate(638.011 486.808) scale(482.028 437.422)">
<stop offset="0.8534" stop-color="#2AF1FF" stop-opacity="0"/>
<stop offset="0.8862" stop-color="#2DE8FF" stop-opacity="0.0112"/>
<stop offset="0.9406" stop-color="#34CEFF" stop-opacity="0.0297"/>
<stop offset="1" stop-color="#3FABFF" stop-opacity="0.05"/>
</radialGradient>
</defs>
</svg>